<svg version="1.0" xmlns="http://www.w3.org/2000/svg" xmlns:xlink="http://www.w3.org/1999/xlink" width="100%" height="100%" viewBox="60 40 220 180"><g transform="translate(70.2449951171875,51.68048095703125)"><g fill="#000000" hollow-target="text"><g transform="matrix(1,0,0,1,24.7550048828125,0)" mask="url(#fce27335-6c89-4cda-b2a8-aa6f332fac98)" opacity="1"><g><svg x="0" y="0" width="150" height="146.6390333554921" style="overflow: visible;"><svg xmlns="http://www.w3.org/2000/svg" viewBox="-0.003964900970458984 0 102.33004760742188 100.03750610351562"><path d="M38 82l-12 6.76c-10.51 6.06-19.82-9.84-9.24-15.84l11.92-6.87c3.25-1.83.45-6.68-2.81-4.85L13.88 68C3.36 74-5.88 58.16 4.64 52.17l12-6.81C40.91 31.49 62.27 68.07 38 82z" fill="#f37422" opacity=".8"></path><path d="M29.82 22.72V9c0-12 18.49-12 18.49 0v13.72c0 3.72 5.67 3.72 5.67 0V9C54-3 72.53-3 72.53 9v13.72c0 27.76-42.71 27.76-42.71 0z" fill="#31a6de" opacity=".8"></path><path d="M64.38 18.06l11.91-6.82c10.58-6.06 19.83 9.84 9.31 15.84l-12 6.81c-3.26 1.89-.39 6.74 2.87 4.91L88.41 32c10.58-6.06 19.82 9.84 9.24 15.84l-11.92 6.8C61.37 68.51 40.08 31.93 64.38 18.06z" fill="#7fbe3e" opacity=".8"></path><path d="M85.73 45.37l11.92 6.81c10.58 6 1.34 21.88-9.24 15.83L76.49 61.2c-3.26-1.83-6.13 3-2.87 4.85l12 6.87c10.52 6 1.27 21.9-9.31 15.84L64.38 82c-24.3-13.88-3-50.46 21.35-36.58z" fill="#cadb1c" opacity=".8"></path><path d="M16.62 54.64l-12-6.81c-10.5-6.06-1.26-21.9 9.26-15.83l12 6.81c3.26 1.83 6.06-3 2.81-4.91l-11.94-6.82c-10.58-6-1.27-21.9 9.24-15.84l12 6.82c24.29 13.87 2.93 50.45-21.36 36.58z" fill="#a2218e" opacity=".8"></path><path d="M72.53 77.28V91c0 12-18.53 12-18.53 0V77.28c0-3.72-5.67-3.72-5.67 0V91c0 12.05-18.49 12.05-18.49 0V77.28c0-27.75 42.71-27.75 42.71 0z" fill="#fcb40b" opacity=".8"></path></svg></svg> <!----></g></g> <g transform="translate(0,50.1715202331543)"><g fill-rule="" transform="matrix(1,0,0,1,0,0)" opacity="1"><g transform="scale(1)"><g><path d="M22.17-5.36L22.17-0.37Q13.93 0.37 8.5 0.37L8.5 0.37Q4.88 0.37 3.18-1.33 1.48-3.03 1.48-6.65L1.48-6.65 1.48-18.47Q1.48-22.35 3.23-24.11 4.99-25.86 8.87-25.86L8.87-25.86 22.17-25.86 22.17-20.69 10.34-20.69Q8.13-20.69 8.13-18.47L8.13-18.47 8.13-6.65Q8.13-5.8 8.63-5.3 9.13-4.8 9.9-4.8 10.68-4.8 11.6-4.82 12.52-4.84 13.52-4.88 14.52-4.91 15.54-4.95 16.55-4.99 18.16-5.1 19.77-5.21 22.17-5.36L22.17-5.36ZM44.7-14.04L44.7-5.54Q44.7-2.77 43.13-1.2 41.56 0.37 38.79 0.37L38.79 0.37 30.3 0.37Q27.52 0.37 25.95-1.2 24.38-2.77 24.38-5.54L24.38-5.54 24.38-14.04Q24.38-16.81 25.95-18.38 27.52-19.95 30.3-19.95L30.3-19.95 38.79-19.95Q41.56-19.95 43.13-18.38 44.7-16.81 44.7-14.04L44.7-14.04ZM38.24-6.1L38.24-13.49Q38.24-14.96 36.76-14.96L36.76-14.96 32.33-14.96Q30.85-14.96 30.85-13.49L30.85-13.49 30.85-6.1Q30.85-4.62 32.33-4.62L32.33-4.62 36.76-4.62Q38.24-4.62 38.24-6.1L38.24-6.1ZM47.29-0.37L47.29-5.17Q54.79-4.62 59.11-4.62L59.11-4.62Q59.67-4.62 60.04-4.99 60.41-5.36 60.41-5.91L60.41-5.91 60.41-7.2 52.46-7.2Q49.95-7.2 48.44-8.72 46.92-10.23 46.92-12.75L46.92-12.75 46.92-14.04Q46.92-16.55 48.44-18.07 49.95-19.58 52.46-19.58L52.46-19.58 65.02-19.58 65.02-14.78 54.68-14.78Q54.13-14.78 53.76-14.41 53.39-14.04 53.39-13.49L53.39-13.49Q53.39-12.93 53.76-12.56 54.13-12.19 54.68-12.19L54.68-12.19 61.33-12.19Q63.84-12.19 65.36-10.68 66.87-9.16 66.87-6.65L66.87-6.65 66.87-5.17Q66.87-2.66 65.36-1.15 63.84 0.37 61.33 0.37L61.33 0.37Q54.79 0.37 47.29-0.37L47.29-0.37ZM69.83 0L69.83-25.86 85.34-25.86Q89.22-25.86 90.98-24.11 92.73-22.35 92.73-18.47L92.73-18.47 92.73-14.78Q92.73-10.9 90.98-9.14 89.22-7.39 85.34-7.39L85.34-7.39 76.48-7.39 76.48 0 69.83 0ZM86.08-14.78L86.08-18.47Q86.08-20.69 83.87-20.69L83.87-20.69 76.48-20.69 76.48-12.56 83.87-12.56Q86.08-12.56 86.08-14.78L86.08-14.78ZM102.16-25.86L102.16-19.21Q105.74-19.95 108.44-19.95L108.44-19.95 110.1-19.95Q112.61-19.95 114.13-18.44 115.64-16.92 115.64-14.41L115.64-14.41 115.64 0 109.17 0 109.17-13.67Q109.17-14.22 108.81-14.59 108.44-14.96 107.88-14.96L107.88-14.96 106.59-14.96Q105.18-14.96 104.02-14.82 102.86-14.67 102.16-14.59L102.16-14.59 102.16 0 95.69 0 95.69-25.86 102.16-25.86ZM138.92-14.04L138.92-5.54Q138.92-2.77 137.35-1.2 135.78 0.37 133 0.37L133 0.37 124.51 0.37Q121.74 0.37 120.17-1.2 118.6-2.77 118.6-5.54L118.6-5.54 118.6-14.04Q118.6-16.81 120.17-18.38 121.74-19.95 124.51-19.95L124.51-19.95 133-19.95Q135.78-19.95 137.35-18.38 138.92-16.81 138.92-14.04L138.92-14.04ZM132.45-6.1L132.45-13.49Q132.45-14.96 130.97-14.96L130.97-14.96 126.54-14.96Q125.06-14.96 125.06-13.49L125.06-13.49 125.06-6.1Q125.06-4.62 126.54-4.62L126.54-4.62 130.97-4.62Q132.45-4.62 132.45-6.1L132.45-6.1ZM170.32-7.02L170.32-25.86 176.97-25.86 176.97-7.02Q176.97-3.14 175.22-1.39 173.46 0.37 169.58 0.37L169.58 0.37 161.08 0.37Q157.2 0.37 155.45-1.39 153.69-3.14 153.69-7.02L153.69-7.02 153.69-25.86 160.34-25.86 160.34-7.02Q160.34-4.8 162.56-4.8L162.56-4.8 168.1-4.8Q170.32-4.8 170.32-7.02L170.32-7.02ZM193.23-14.59L191.93-14.59Q189.98-14.59 187.5-13.85L187.5-13.85 187.5-4.99 193.04-4.99Q194.52-4.99 194.52-6.47L194.52-6.47 194.52-13.3Q194.52-13.85 194.15-14.22 193.78-14.59 193.23-14.59L193.23-14.59ZM195.07 0L187.5 0 187.5 6.28 181.03 6.28 181.03-19.58 186.76-19.58 187.13-17.73Q188.87-18.88 190.7-19.42 192.52-19.95 193.78-19.95L193.78-19.95 195.44-19.95Q197.96-19.95 199.47-18.44 200.99-16.92 200.99-14.41L200.99-14.41 200.99-5.91Q200.99-3.14 199.42-1.57 197.84 0 195.07 0L195.07 0Z" transform="translate(-1.4800000190734863, 25.860000610351562)"></path></g></g></g> <g fill-rule="" fill="#444" transform="matrix(1,0,0,1,5,38.13999938964844)" opacity="1"><rect x="0" height="1" y="3.580000400543213" width="50.0050048828125"></rect> <rect height="1" y="3.580000400543213" width="50.0050048828125" x="139.5050048828125"></rect> <g transform="translate(53.0050048828125,0)"><g transform="scale(1)"><path d="M0.62-3.94C0.62-3.30 0.71-2.72 0.88-2.21C1.05-1.71 1.29-1.28 1.60-0.93C1.91-0.58 2.27-0.32 2.69-0.13C3.11 0.05 3.57 0.14 4.07 0.14C4.57 0.14 5.02 0.04 5.41-0.16C5.80-0.36 6.16-0.64 6.47-1.00L5.90-1.61C5.65-1.33 5.38-1.11 5.09-0.96C4.81-0.81 4.48-0.73 4.09-0.73C3.72-0.73 3.38-0.81 3.08-0.96C2.78-1.11 2.52-1.33 2.32-1.61C2.11-1.89 1.95-2.23 1.83-2.62C1.71-3.02 1.66-3.46 1.66-3.96C1.66-4.45 1.72-4.89 1.84-5.28C1.96-5.67 2.12-6.01 2.34-6.28C2.56-6.56 2.82-6.77 3.12-6.92C3.42-7.07 3.76-7.14 4.14-7.14C4.48-7.14 4.77-7.07 5.02-6.94C5.27-6.81 5.50-6.63 5.71-6.41L6.28-7.04C6.04-7.30 5.75-7.53 5.39-7.72C5.03-7.92 4.61-8.02 4.13-8.02C3.62-8.02 3.16-7.92 2.73-7.73C2.30-7.55 1.93-7.28 1.62-6.92C1.31-6.57 1.06-6.14 0.89-5.64C0.71-5.14 0.62-4.57 0.62-3.94ZM10.49 0.14C10.98 0.14 11.44 0.05 11.85-0.14C12.26-0.34 12.62-0.61 12.92-0.97C13.22-1.32 13.45-1.75 13.61-2.26C13.78-2.77 13.86-3.34 13.86-3.97C13.86-4.60 13.78-5.16 13.61-5.66C13.45-6.16 13.22-6.58 12.92-6.93C12.62-7.28 12.26-7.55 11.85-7.73C11.44-7.92 10.98-8.02 10.49-8.02C9.99-8.02 9.54-7.92 9.13-7.74C8.71-7.56 8.36-7.29 8.06-6.94C7.77-6.59 7.54-6.17 7.37-5.67C7.21-5.17 7.13-4.60 7.13-3.97C7.13-3.34 7.21-2.77 7.37-2.26C7.54-1.75 7.77-1.32 8.06-0.97C8.36-0.61 8.71-0.34 9.13-0.14C9.54 0.05 9.99 0.14 10.49 0.14ZM10.49-0.73C10.14-0.73 9.82-0.81 9.53-0.96C9.25-1.11 9.01-1.33 8.80-1.61C8.60-1.90 8.44-2.24 8.33-2.63C8.22-3.03 8.16-3.48 8.16-3.97C8.16-4.46 8.22-4.90 8.33-5.29C8.44-5.68 8.60-6.02 8.80-6.29C9.01-6.56 9.25-6.77 9.53-6.92C9.82-7.07 10.14-7.14 10.49-7.14C10.84-7.14 11.16-7.07 11.44-6.92C11.73-6.77 11.97-6.56 12.17-6.29C12.38-6.02 12.54-5.68 12.65-5.29C12.76-4.90 12.82-4.46 12.82-3.97C12.82-3.48 12.76-3.03 12.65-2.63C12.54-2.24 12.38-1.90 12.17-1.61C11.97-1.33 11.73-1.11 11.44-0.96C11.16-0.81 10.84-0.73 10.49-0.73ZM15.58-1.72L14.98-1.02C15.32-0.66 15.73-0.38 16.20-0.17C16.67 0.04 17.18 0.14 17.74 0.14C18.15 0.14 18.52 0.09 18.85-0.03C19.18-0.15 19.46-0.31 19.69-0.51C19.92-0.71 20.10-0.95 20.23-1.22C20.35-1.50 20.41-1.79 20.41-2.10C20.41-2.39 20.37-2.64 20.29-2.86C20.20-3.08 20.09-3.27 19.94-3.44C19.80-3.60 19.63-3.75 19.43-3.87C19.23-3.99 19.02-4.10 18.79-4.20L17.68-4.68C17.52-4.74 17.36-4.81 17.21-4.89C17.06-4.97 16.92-5.05 16.79-5.15C16.66-5.25 16.56-5.37 16.48-5.50C16.41-5.63 16.37-5.80 16.37-5.99C16.37-6.35 16.50-6.63 16.77-6.83C17.04-7.04 17.39-7.14 17.83-7.14C18.20-7.14 18.53-7.07 18.82-6.94C19.11-6.81 19.38-6.63 19.62-6.40L20.16-7.04C19.88-7.33 19.54-7.57 19.14-7.75C18.74-7.93 18.30-8.02 17.83-8.02C17.47-8.02 17.14-7.96 16.84-7.86C16.54-7.76 16.28-7.61 16.06-7.42C15.84-7.23 15.67-7.01 15.55-6.76C15.42-6.50 15.36-6.22 15.36-5.93C15.36-5.64 15.41-5.39 15.50-5.17C15.60-4.95 15.72-4.76 15.88-4.60C16.03-4.44 16.20-4.30 16.39-4.19C16.58-4.08 16.77-3.98 16.96-3.90L18.08-3.41C18.27-3.32 18.44-3.24 18.60-3.16C18.76-3.08 18.90-2.99 19.01-2.89C19.13-2.79 19.22-2.67 19.29-2.53C19.36-2.39 19.39-2.22 19.39-2.02C19.39-1.63 19.25-1.32 18.96-1.09C18.67-0.85 18.27-0.73 17.75-0.73C17.34-0.73 16.95-0.82 16.57-1.00C16.19-1.18 15.86-1.42 15.58-1.72ZM21.96-7.87L21.96 0L22.96 0L22.96-3.12L24.37-3.12C24.80-3.12 25.20-3.17 25.55-3.27C25.91-3.37 26.22-3.52 26.47-3.72C26.73-3.92 26.93-4.17 27.07-4.48C27.21-4.78 27.28-5.14 27.28-5.56C27.28-5.99 27.21-6.35 27.07-6.65C26.93-6.94 26.73-7.18 26.48-7.36C26.23-7.54 25.92-7.67 25.56-7.75C25.20-7.83 24.80-7.87 24.37-7.87ZM24.25-3.94L22.96-3.94L22.96-7.07L24.25-7.07C24.93-7.07 25.44-6.96 25.78-6.74C26.11-6.52 26.28-6.12 26.28-5.56C26.28-5.00 26.11-4.59 25.78-4.33C25.45-4.07 24.94-3.94 24.25-3.94ZM28.87-7.87L28.87 0L33.31 0L33.31-0.85L29.87-0.85L29.87-7.87ZM38.09-3.20L35.72-3.20L36.10-4.40C36.24-4.84 36.38-5.28 36.50-5.72C36.63-6.15 36.76-6.60 36.88-7.06L36.92-7.06C37.05-6.60 37.18-6.15 37.31-5.72C37.44-5.28 37.57-4.84 37.72-4.40ZM38.34-2.40L39.08 0L40.15 0L37.49-7.87L36.36-7.87L33.70 0L34.72 0L35.47-2.40ZM42.37-3.05L42.37 0L43.38 0L43.38-3.05L45.74-7.87L44.70-7.87L43.69-5.65C43.57-5.36 43.44-5.08 43.31-4.80C43.17-4.52 43.04-4.23 42.90-3.94L42.85-3.94C42.72-4.23 42.59-4.52 42.47-4.80C42.35-5.08 42.22-5.36 42.10-5.65L41.08-7.87L40.01-7.87ZM49.24-7.87L49.24 0L50.23 0L50.23-3.12L51.65-3.12C52.08-3.12 52.47-3.17 52.83-3.27C53.19-3.37 53.49-3.52 53.75-3.72C54.00-3.92 54.20-4.17 54.34-4.48C54.48-4.78 54.55-5.14 54.55-5.56C54.55-5.99 54.48-6.35 54.34-6.65C54.20-6.94 54.01-7.18 53.75-7.36C53.50-7.54 53.20-7.67 52.84-7.75C52.48-7.83 52.08-7.87 51.65-7.87ZM51.53-3.94L50.23-3.94L50.23-7.07L51.53-7.07C52.21-7.07 52.72-6.96 53.05-6.74C53.39-6.52 53.56-6.12 53.56-5.56C53.56-5.00 53.39-4.59 53.06-4.33C52.73-4.07 52.22-3.94 51.53-3.94ZM56.15-7.87L56.15 0L57.14 0L57.14-3.71L60.80-3.71L60.80 0L61.81 0L61.81-7.87L60.80-7.87L60.80-4.57L57.14-4.57L57.14-7.87ZM66.88 0.14C67.37 0.14 67.83 0.05 68.24-0.14C68.65-0.34 69.01-0.61 69.31-0.97C69.61-1.32 69.84-1.75 70.00-2.26C70.17-2.77 70.25-3.34 70.25-3.97C70.25-4.60 70.17-5.16 70.00-5.66C69.84-6.16 69.61-6.58 69.31-6.93C69.01-7.28 68.65-7.55 68.24-7.73C67.83-7.92 67.37-8.02 66.88-8.02C66.38-8.02 65.93-7.92 65.51-7.74C65.10-7.56 64.75-7.29 64.45-6.94C64.16-6.59 63.93-6.17 63.76-5.67C63.60-5.17 63.52-4.60 63.52-3.97C63.52-3.34 63.60-2.77 63.76-2.26C63.93-1.75 64.16-1.32 64.45-0.97C64.75-0.61 65.10-0.34 65.51-0.14C65.93 0.05 66.38 0.14 66.88 0.14ZM66.88-0.73C66.52-0.73 66.21-0.81 65.92-0.96C65.64-1.11 65.39-1.33 65.19-1.61C64.99-1.90 64.83-2.24 64.72-2.63C64.60-3.03 64.55-3.48 64.55-3.97C64.55-4.46 64.60-4.90 64.72-5.29C64.83-5.68 64.99-6.02 65.19-6.29C65.39-6.56 65.64-6.77 65.92-6.92C66.21-7.07 66.52-7.14 66.88-7.14C67.23-7.14 67.55-7.07 67.83-6.92C68.11-6.77 68.36-6.56 68.56-6.29C68.77-6.02 68.92-5.68 69.04-5.29C69.15-4.90 69.20-4.46 69.20-3.97C69.20-3.48 69.15-3.03 69.04-2.63C68.92-2.24 68.77-1.90 68.56-1.61C68.36-1.33 68.11-1.11 67.83-0.96C67.55-0.81 67.23-0.73 66.88-0.73ZM73.33-7.03L73.33 0L74.34 0L74.34-7.03L76.72-7.03L76.72-7.87L70.96-7.87L70.96-7.03ZM80.75 0.14C81.24 0.14 81.70 0.05 82.11-0.14C82.52-0.34 82.88-0.61 83.18-0.97C83.48-1.32 83.71-1.75 83.87-2.26C84.04-2.77 84.12-3.34 84.12-3.97C84.12-4.60 84.04-5.16 83.87-5.66C83.71-6.16 83.48-6.58 83.18-6.93C82.88-7.28 82.52-7.55 82.11-7.73C81.70-7.92 81.24-8.02 80.75-8.02C80.25-8.02 79.80-7.92 79.39-7.74C78.97-7.56 78.62-7.29 78.32-6.94C78.03-6.59 77.80-6.17 77.63-5.67C77.47-5.17 77.39-4.60 77.39-3.97C77.39-3.34 77.47-2.77 77.63-2.26C77.80-1.75 78.03-1.32 78.32-0.97C78.62-0.61 78.97-0.34 79.39-0.14C79.80 0.05 80.25 0.14 80.75 0.14ZM80.75-0.73C80.40-0.73 80.08-0.81 79.79-0.96C79.51-1.11 79.27-1.33 79.06-1.61C78.86-1.90 78.70-2.24 78.59-2.63C78.48-3.03 78.42-3.48 78.42-3.97C78.42-4.46 78.48-4.90 78.59-5.29C78.70-5.68 78.86-6.02 79.06-6.29C79.27-6.56 79.51-6.77 79.79-6.92C80.08-7.07 80.40-7.14 80.75-7.14C81.10-7.14 81.42-7.07 81.70-6.92C81.99-6.77 82.23-6.56 82.43-6.29C82.64-6.02 82.80-5.68 82.91-5.29C83.02-4.90 83.08-4.46 83.08-3.97C83.08-3.48 83.02-3.03 82.91-2.63C82.80-2.24 82.64-1.90 82.43-1.61C82.23-1.33 81.99-1.11 81.70-0.96C81.42-0.81 81.10-0.73 80.75-0.73Z" transform="translate(-0.624, 8.016)"></path></g></g></g></g></g></g><mask id="fce27335-6c89-4cda-b2a8-aa6f332fac98"><g fill="white"><g><rect fill-opacity="1" stroke-width="2" x="0" y="0" width="150" height="146.6390333554921"></rect> <svg x="0" y="0" width="150" height="146.6390333554921" style="overflow: visible;"><svg xmlns="http://www.w3.org/2000/svg" viewBox="-0.003964900970458984 0 102.33004760742188 100.03750610351562"><path d="M38 82l-12 6.76c-10.51 6.06-19.82-9.84-9.24-15.84l11.92-6.87c3.25-1.83.45-6.68-2.81-4.85L13.88 68C3.36 74-5.88 58.16 4.64 52.17l12-6.81C40.91 31.49 62.27 68.07 38 82z" opacity=".8"></path><path d="M29.82 22.72V9c0-12 18.49-12 18.49 0v13.72c0 3.72 5.67 3.72 5.67 0V9C54-3 72.53-3 72.53 9v13.72c0 27.76-42.71 27.76-42.71 0z" opacity=".8"></path><path d="M64.38 18.06l11.91-6.82c10.58-6.06 19.83 9.84 9.31 15.84l-12 6.81c-3.26 1.89-.39 6.74 2.87 4.91L88.41 32c10.58-6.06 19.82 9.84 9.24 15.84l-11.92 6.8C61.37 68.51 40.08 31.93 64.38 18.06z" opacity=".8"></path><path d="M85.73 45.37l11.92 6.81c10.58 6 1.34 21.88-9.24 15.83L76.49 61.2c-3.26-1.83-6.13 3-2.87 4.85l12 6.87c10.52 6 1.27 21.9-9.31 15.84L64.38 82c-24.3-13.88-3-50.46 21.35-36.58z" opacity=".8"></path><path d="M16.62 54.64l-12-6.81c-10.5-6.06-1.26-21.9 9.26-15.83l12 6.81c3.26 1.83 6.06-3 2.81-4.91l-11.94-6.82c-10.58-6-1.27-21.9 9.24-15.84l12 6.82c24.29 13.87 2.93 50.45-21.36 36.58z" opacity=".8"></path><path d="M72.53 77.28V91c0 12-18.53 12-18.53 0V77.28c0-3.72-5.67-3.72-5.67 0V91c0 12.05-18.49 12.05-18.49 0V77.28c0-27.75 42.71-27.75 42.71 0z" opacity=".8"></path></svg></svg> </g></g> <g transform="translate(-24.7550048828125,50.1715202331543)" fill="black" stroke="black" stroke-width="6" stroke-linejoin="round"><g fill-rule="" transform="matrix(1,0,0,1,0,0)" opacity="1"><g transform="scale(1)"><g><path d="M22.17-5.36L22.17-0.37Q13.93 0.37 8.5 0.37L8.5 0.37Q4.88 0.37 3.18-1.33 1.48-3.03 1.48-6.65L1.48-6.65 1.48-18.47Q1.48-22.35 3.23-24.11 4.99-25.86 8.87-25.86L8.87-25.86 22.17-25.86 22.17-20.69 10.34-20.69Q8.13-20.69 8.13-18.47L8.13-18.47 8.13-6.65Q8.13-5.8 8.63-5.3 9.13-4.8 9.9-4.8 10.68-4.8 11.6-4.82 12.52-4.84 13.52-4.88 14.52-4.91 15.54-4.95 16.55-4.99 18.16-5.1 19.77-5.21 22.17-5.36L22.17-5.36ZM44.7-14.04L44.7-5.54Q44.7-2.77 43.13-1.2 41.56 0.37 38.79 0.37L38.79 0.37 30.3 0.37Q27.52 0.37 25.95-1.2 24.38-2.77 24.38-5.54L24.38-5.54 24.38-14.04Q24.38-16.81 25.95-18.38 27.52-19.95 30.3-19.95L30.3-19.95 38.79-19.95Q41.56-19.95 43.13-18.38 44.7-16.81 44.7-14.04L44.7-14.04ZM38.24-6.1L38.24-13.49Q38.24-14.96 36.76-14.96L36.76-14.96 32.33-14.96Q30.85-14.96 30.85-13.49L30.85-13.49 30.85-6.1Q30.85-4.62 32.33-4.62L32.33-4.62 36.76-4.62Q38.24-4.62 38.24-6.1L38.24-6.1ZM47.29-0.37L47.29-5.17Q54.79-4.62 59.11-4.62L59.11-4.62Q59.67-4.62 60.04-4.99 60.41-5.36 60.41-5.91L60.41-5.91 60.41-7.2 52.46-7.2Q49.95-7.2 48.44-8.72 46.92-10.23 46.92-12.75L46.92-12.75 46.92-14.04Q46.92-16.55 48.44-18.07 49.95-19.58 52.46-19.58L52.46-19.58 65.02-19.58 65.02-14.78 54.68-14.78Q54.13-14.78 53.76-14.41 53.39-14.04 53.39-13.49L53.39-13.49Q53.39-12.93 53.76-12.56 54.13-12.19 54.68-12.19L54.68-12.19 61.33-12.19Q63.84-12.19 65.36-10.68 66.87-9.16 66.87-6.65L66.87-6.65 66.87-5.17Q66.87-2.66 65.36-1.15 63.84 0.37 61.33 0.37L61.33 0.37Q54.79 0.37 47.29-0.37L47.29-0.37ZM69.83 0L69.83-25.86 85.34-25.86Q89.22-25.86 90.98-24.11 92.73-22.35 92.73-18.47L92.73-18.47 92.73-14.78Q92.73-10.9 90.98-9.14 89.22-7.39 85.34-7.39L85.34-7.39 76.48-7.39 76.48 0 69.83 0ZM86.08-14.78L86.08-18.47Q86.08-20.69 83.87-20.69L83.87-20.69 76.48-20.69 76.48-12.56 83.87-12.56Q86.08-12.56 86.08-14.78L86.08-14.78ZM102.16-25.86L102.16-19.21Q105.74-19.95 108.44-19.95L108.44-19.95 110.1-19.95Q112.61-19.95 114.13-18.44 115.64-16.92 115.64-14.41L115.64-14.41 115.64 0 109.17 0 109.17-13.67Q109.17-14.22 108.81-14.59 108.44-14.96 107.88-14.96L107.88-14.96 106.59-14.96Q105.18-14.96 104.02-14.82 102.86-14.67 102.16-14.59L102.16-14.59 102.16 0 95.69 0 95.69-25.86 102.16-25.86ZM138.92-14.04L138.92-5.54Q138.92-2.77 137.35-1.2 135.78 0.37 133 0.37L133 0.37 124.51 0.37Q121.74 0.37 120.17-1.2 118.6-2.77 118.6-5.54L118.6-5.54 118.6-14.04Q118.6-16.81 120.17-18.38 121.74-19.95 124.51-19.95L124.51-19.95 133-19.95Q135.78-19.95 137.35-18.38 138.92-16.81 138.92-14.04L138.92-14.04ZM132.45-6.1L132.45-13.49Q132.45-14.96 130.97-14.96L130.97-14.96 126.54-14.96Q125.06-14.96 125.06-13.49L125.06-13.49 125.06-6.1Q125.06-4.62 126.54-4.62L126.54-4.62 130.97-4.62Q132.45-4.62 132.45-6.1L132.45-6.1ZM170.32-7.02L170.32-25.86 176.97-25.86 176.97-7.02Q176.97-3.14 175.22-1.39 173.46 0.37 169.58 0.37L169.58 0.37 161.08 0.37Q157.2 0.37 155.45-1.39 153.69-3.14 153.69-7.02L153.69-7.02 153.69-25.86 160.34-25.86 160.34-7.02Q160.34-4.8 162.56-4.8L162.56-4.8 168.1-4.8Q170.32-4.8 170.32-7.02L170.32-7.02ZM193.23-14.59L191.93-14.59Q189.98-14.59 187.5-13.85L187.5-13.85 187.5-4.99 193.04-4.99Q194.52-4.99 194.52-6.47L194.52-6.47 194.52-13.3Q194.52-13.85 194.15-14.22 193.78-14.59 193.23-14.59L193.23-14.59ZM195.07 0L187.5 0 187.5 6.28 181.03 6.28 181.03-19.58 186.76-19.58 187.13-17.73Q188.87-18.88 190.7-19.42 192.52-19.95 193.78-19.95L193.78-19.95 195.44-19.95Q197.96-19.95 199.47-18.44 200.99-16.92 200.99-14.41L200.99-14.41 200.99-5.91Q200.99-3.14 199.42-1.57 197.84 0 195.07 0L195.07 0Z" transform="translate(-1.4800000190734863, 25.860000610351562)"></path></g>       </g></g> <g fill-rule="" transform="matrix(1,0,0,1,5,38.13999938964844)" fill="white" opacity="1"><rect x="0" height="1" y="3.580000400543213" width="50.0050048828125"></rect> <rect height="1" y="3.580000400543213" width="50.0050048828125" x="139.5050048828125"></rect> <g transform="translate(53.0050048828125,0)"><g transform="scale(1)"><path d="M0.62-3.94C0.62-3.30 0.71-2.72 0.88-2.21C1.05-1.71 1.29-1.28 1.60-0.93C1.91-0.58 2.27-0.32 2.69-0.13C3.11 0.05 3.57 0.14 4.07 0.14C4.57 0.14 5.02 0.04 5.41-0.16C5.80-0.36 6.16-0.64 6.47-1.00L5.90-1.61C5.65-1.33 5.38-1.11 5.09-0.96C4.81-0.81 4.48-0.73 4.09-0.73C3.72-0.73 3.38-0.81 3.08-0.96C2.78-1.11 2.52-1.33 2.32-1.61C2.11-1.89 1.95-2.23 1.83-2.62C1.71-3.02 1.66-3.46 1.66-3.96C1.66-4.45 1.72-4.89 1.84-5.28C1.96-5.67 2.12-6.01 2.34-6.28C2.56-6.56 2.82-6.77 3.12-6.92C3.42-7.07 3.76-7.14 4.14-7.14C4.48-7.14 4.77-7.07 5.02-6.94C5.27-6.81 5.50-6.63 5.71-6.41L6.28-7.04C6.04-7.30 5.75-7.53 5.39-7.72C5.03-7.92 4.61-8.02 4.13-8.02C3.62-8.02 3.16-7.92 2.73-7.73C2.30-7.55 1.93-7.28 1.62-6.92C1.31-6.57 1.06-6.14 0.89-5.64C0.71-5.14 0.62-4.57 0.62-3.94ZM10.49 0.14C10.98 0.14 11.44 0.05 11.85-0.14C12.26-0.34 12.62-0.61 12.92-0.97C13.22-1.32 13.45-1.75 13.61-2.26C13.78-2.77 13.86-3.34 13.86-3.97C13.86-4.60 13.78-5.16 13.61-5.66C13.45-6.16 13.22-6.58 12.92-6.93C12.62-7.28 12.26-7.55 11.85-7.73C11.44-7.92 10.98-8.02 10.49-8.02C9.99-8.02 9.54-7.92 9.13-7.74C8.71-7.56 8.36-7.29 8.06-6.94C7.77-6.59 7.54-6.17 7.37-5.67C7.21-5.17 7.13-4.60 7.13-3.97C7.13-3.34 7.21-2.77 7.37-2.26C7.54-1.75 7.77-1.32 8.06-0.97C8.36-0.61 8.71-0.34 9.13-0.14C9.54 0.05 9.99 0.14 10.49 0.14ZM10.49-0.73C10.14-0.73 9.82-0.81 9.53-0.96C9.25-1.11 9.01-1.33 8.80-1.61C8.60-1.90 8.44-2.24 8.33-2.63C8.22-3.03 8.16-3.48 8.16-3.97C8.16-4.46 8.22-4.90 8.33-5.29C8.44-5.68 8.60-6.02 8.80-6.29C9.01-6.56 9.25-6.77 9.53-6.92C9.82-7.07 10.14-7.14 10.49-7.14C10.84-7.14 11.16-7.07 11.44-6.92C11.73-6.77 11.97-6.56 12.17-6.29C12.38-6.02 12.54-5.68 12.65-5.29C12.76-4.90 12.82-4.46 12.82-3.97C12.82-3.48 12.76-3.03 12.65-2.63C12.54-2.24 12.38-1.90 12.17-1.61C11.97-1.33 11.73-1.11 11.44-0.96C11.16-0.81 10.84-0.73 10.49-0.73ZM15.58-1.72L14.98-1.02C15.32-0.66 15.73-0.38 16.20-0.17C16.67 0.04 17.18 0.14 17.74 0.14C18.15 0.14 18.52 0.09 18.85-0.03C19.18-0.15 19.46-0.31 19.69-0.51C19.92-0.71 20.10-0.95 20.23-1.22C20.35-1.50 20.41-1.79 20.41-2.10C20.41-2.39 20.37-2.64 20.29-2.86C20.20-3.08 20.09-3.27 19.94-3.44C19.80-3.60 19.63-3.75 19.43-3.87C19.23-3.99 19.02-4.10 18.79-4.20L17.68-4.68C17.52-4.74 17.36-4.81 17.21-4.89C17.06-4.97 16.92-5.05 16.79-5.15C16.66-5.25 16.56-5.37 16.48-5.50C16.41-5.63 16.37-5.80 16.37-5.99C16.37-6.35 16.50-6.63 16.77-6.83C17.04-7.04 17.39-7.14 17.83-7.14C18.20-7.14 18.53-7.07 18.82-6.94C19.11-6.81 19.38-6.63 19.62-6.40L20.16-7.04C19.88-7.33 19.54-7.57 19.14-7.75C18.74-7.93 18.30-8.02 17.83-8.02C17.47-8.02 17.14-7.96 16.84-7.86C16.54-7.76 16.28-7.61 16.06-7.42C15.84-7.23 15.67-7.01 15.55-6.76C15.42-6.50 15.36-6.22 15.36-5.93C15.36-5.64 15.41-5.39 15.50-5.17C15.60-4.95 15.72-4.76 15.88-4.60C16.03-4.44 16.20-4.30 16.39-4.19C16.58-4.08 16.77-3.98 16.96-3.90L18.08-3.41C18.27-3.32 18.44-3.24 18.60-3.16C18.76-3.08 18.90-2.99 19.01-2.89C19.13-2.79 19.22-2.67 19.29-2.53C19.36-2.39 19.39-2.22 19.39-2.02C19.39-1.63 19.25-1.32 18.96-1.09C18.67-0.85 18.27-0.73 17.75-0.73C17.34-0.73 16.95-0.82 16.57-1.00C16.19-1.18 15.86-1.42 15.58-1.72ZM21.96-7.87L21.96 0L22.96 0L22.96-3.12L24.37-3.12C24.80-3.12 25.20-3.17 25.55-3.27C25.91-3.37 26.22-3.52 26.47-3.72C26.73-3.92 26.93-4.17 27.07-4.48C27.21-4.78 27.28-5.14 27.28-5.56C27.28-5.99 27.21-6.35 27.07-6.65C26.93-6.94 26.73-7.18 26.48-7.36C26.23-7.54 25.92-7.67 25.56-7.75C25.20-7.83 24.80-7.87 24.37-7.87ZM24.25-3.94L22.96-3.94L22.96-7.07L24.25-7.07C24.93-7.07 25.44-6.96 25.78-6.74C26.11-6.52 26.28-6.12 26.28-5.56C26.28-5.00 26.11-4.59 25.78-4.33C25.45-4.07 24.94-3.94 24.25-3.94ZM28.87-7.87L28.87 0L33.31 0L33.31-0.85L29.87-0.85L29.87-7.87ZM38.09-3.20L35.72-3.20L36.10-4.40C36.24-4.84 36.38-5.28 36.50-5.72C36.63-6.15 36.76-6.60 36.88-7.06L36.92-7.06C37.05-6.60 37.18-6.15 37.31-5.72C37.44-5.28 37.57-4.84 37.72-4.40ZM38.34-2.40L39.08 0L40.15 0L37.49-7.87L36.36-7.87L33.70 0L34.72 0L35.47-2.40ZM42.37-3.05L42.37 0L43.38 0L43.38-3.05L45.74-7.87L44.70-7.87L43.69-5.65C43.57-5.36 43.44-5.08 43.31-4.80C43.17-4.52 43.04-4.23 42.90-3.94L42.85-3.94C42.72-4.23 42.59-4.52 42.47-4.80C42.35-5.08 42.22-5.36 42.10-5.65L41.08-7.87L40.01-7.87ZM49.24-7.87L49.24 0L50.23 0L50.23-3.12L51.65-3.12C52.08-3.12 52.47-3.17 52.83-3.27C53.19-3.37 53.49-3.52 53.75-3.72C54.00-3.92 54.20-4.17 54.34-4.48C54.48-4.78 54.55-5.14 54.55-5.56C54.55-5.99 54.48-6.35 54.34-6.65C54.20-6.94 54.01-7.18 53.75-7.36C53.50-7.54 53.20-7.67 52.84-7.75C52.48-7.83 52.08-7.87 51.65-7.87ZM51.53-3.94L50.23-3.94L50.23-7.07L51.53-7.07C52.21-7.07 52.72-6.96 53.05-6.74C53.39-6.52 53.56-6.12 53.56-5.56C53.56-5.00 53.39-4.59 53.06-4.33C52.73-4.07 52.22-3.94 51.53-3.94ZM56.15-7.87L56.15 0L57.14 0L57.14-3.71L60.80-3.71L60.80 0L61.81 0L61.81-7.87L60.80-7.87L60.80-4.57L57.14-4.57L57.14-7.87ZM66.88 0.14C67.37 0.14 67.83 0.05 68.24-0.14C68.65-0.34 69.01-0.61 69.31-0.97C69.61-1.32 69.84-1.75 70.00-2.26C70.17-2.77 70.25-3.34 70.25-3.97C70.25-4.60 70.17-5.16 70.00-5.66C69.84-6.16 69.61-6.58 69.31-6.93C69.01-7.28 68.65-7.55 68.24-7.73C67.83-7.92 67.37-8.02 66.88-8.02C66.38-8.02 65.93-7.92 65.51-7.74C65.10-7.56 64.75-7.29 64.45-6.94C64.16-6.59 63.93-6.17 63.76-5.67C63.60-5.17 63.52-4.60 63.52-3.97C63.52-3.34 63.60-2.77 63.76-2.26C63.93-1.75 64.16-1.32 64.45-0.97C64.75-0.61 65.10-0.34 65.51-0.14C65.93 0.05 66.38 0.14 66.88 0.14ZM66.88-0.73C66.52-0.73 66.21-0.81 65.92-0.96C65.64-1.11 65.39-1.33 65.19-1.61C64.99-1.90 64.83-2.24 64.72-2.63C64.60-3.03 64.55-3.48 64.55-3.97C64.55-4.46 64.60-4.90 64.72-5.29C64.83-5.68 64.99-6.02 65.19-6.29C65.39-6.56 65.64-6.77 65.92-6.92C66.21-7.07 66.52-7.14 66.88-7.14C67.23-7.14 67.55-7.07 67.83-6.92C68.11-6.77 68.36-6.56 68.56-6.29C68.77-6.02 68.92-5.68 69.04-5.29C69.15-4.90 69.20-4.46 69.20-3.97C69.20-3.48 69.15-3.03 69.04-2.63C68.92-2.24 68.77-1.90 68.56-1.61C68.36-1.33 68.11-1.11 67.83-0.96C67.55-0.81 67.23-0.73 66.88-0.73ZM73.33-7.03L73.33 0L74.34 0L74.34-7.03L76.72-7.03L76.72-7.87L70.96-7.87L70.96-7.03ZM80.75 0.14C81.24 0.14 81.70 0.05 82.11-0.14C82.52-0.34 82.88-0.61 83.18-0.97C83.48-1.32 83.71-1.75 83.87-2.26C84.04-2.77 84.12-3.34 84.12-3.97C84.12-4.60 84.04-5.16 83.87-5.66C83.71-6.16 83.48-6.58 83.18-6.93C82.88-7.28 82.52-7.55 82.11-7.73C81.70-7.92 81.24-8.02 80.75-8.02C80.25-8.02 79.80-7.92 79.39-7.74C78.97-7.56 78.62-7.29 78.32-6.94C78.03-6.59 77.80-6.17 77.63-5.67C77.47-5.17 77.39-4.60 77.39-3.97C77.39-3.34 77.47-2.77 77.63-2.26C77.80-1.75 78.03-1.32 78.32-0.97C78.62-0.61 78.97-0.34 79.39-0.14C79.80 0.05 80.25 0.14 80.75 0.14ZM80.75-0.73C80.40-0.73 80.08-0.81 79.79-0.96C79.51-1.11 79.27-1.33 79.06-1.61C78.86-1.90 78.70-2.24 78.59-2.63C78.48-3.03 78.42-3.48 78.42-3.97C78.42-4.46 78.48-4.90 78.59-5.29C78.70-5.68 78.86-6.02 79.06-6.29C79.27-6.56 79.51-6.77 79.79-6.92C80.08-7.07 80.40-7.14 80.75-7.14C81.10-7.14 81.42-7.07 81.70-6.92C81.99-6.77 82.23-6.56 82.43-6.29C82.64-6.02 82.80-5.68 82.91-5.29C83.02-4.90 83.08-4.46 83.08-3.97C83.08-3.48 83.02-3.03 82.91-2.63C82.80-2.24 82.64-1.90 82.43-1.61C82.23-1.33 81.99-1.11 81.70-0.96C81.42-0.81 81.10-0.73 80.75-0.73Z" transform="translate(-0.624, 8.016)"></path></g></g></g></g></mask><defs v-gra="od"></defs></svg>
